<?xml version="1.0" encoding="utf-8"?>
<!-- Generator: Adobe Illustrator 25.1.0, SVG Export Plug-In . SVG Version: 6.00 Build 0)  -->
<svg version="1.1" id="Layer_1" xmlns="http://www.w3.org/2000/svg" xmlns:xlink="http://www.w3.org/1999/xlink" x="0px" y="0px"
	 viewBox="0 0 320 56.9" style="enable-background:new 0 0 320 56.9;" xml:space="preserve">
<g>
	<path d="M21.4,26.6h-0.2l-3.1,29.6h-12L0,0.6h8.5l4.6,43.8h0.2l4.1-43.8h8.4l4.3,44.2h0.2l4.4-44.2h7.6l-6.2,55.6H24.5L21.4,26.6z"
		/>
	<path d="M56.1,56.2h-8.7V0.6h8.7v23.8H66V0.6h8.9v55.6H66V32.4h-9.9V56.2z"/>
	<path d="M81.9,0.6h8.7v55.6h-8.7V0.6z"/>
	<path d="M95.1,0.6h27v7.9h-9.1v47.7h-8.7V8.6h-9.1V0.6z"/>
	<path d="M135.3,24.1h12V32h-12v16.3h15.1v7.9h-23.8V0.6h23.8v7.9h-15.1V24.1z"/>
	<path d="M195.2,14.4v7.2c0,8.9-4.3,13.7-13,13.7h-4.1v20.9h-8.7V0.6h12.9C190.9,0.6,195.2,5.5,195.2,14.4z M178.1,8.6v18.8h4.1
		c2.8,0,4.3-1.3,4.3-5.2v-8.3c0-4-1.5-5.2-4.3-5.2H178.1z"/>
	<path d="M227.2,56.2h-8.8l-1.5-10.1h-10.7l-1.5,10.1h-8l8.9-55.6h12.8L227.2,56.2z M207.2,38.6h8.4l-4.1-28.1h-0.2L207.2,38.6z"/>
	<path d="M239.8,16h-0.2v40.3h-7.9V0.6h11l8.8,33.3h0.2V0.6h7.8v55.6h-9L239.8,16z"/>
	<path d="M263.8,0.6h27v7.9h-9.1v47.7H273V8.6h-9.1V0.6z"/>
	<path d="M307.1,0c8.5,0,12.9,5.1,12.9,14v1.7h-8.3v-2.3c0-4-1.6-5.5-4.4-5.5c-2.8,0-4.4,1.5-4.4,5.5c0,4.1,1.7,7.1,7.5,12.1
		c7.3,6.4,9.6,11,9.6,17.4c0,8.9-4.4,14-13,14c-8.6,0-13-5.1-13-14v-3.4h8.3v4c0,4,1.7,5.4,4.5,5.4c2.8,0,4.5-1.4,4.5-5.4
		c0-4.1-1.7-7.1-7.5-12.1c-7.3-6.4-9.6-11-9.6-17.4C294.2,5.1,298.6,0,307.1,0z"/>
</g>
</svg>
